<svg width="33" height="34" viewBox="0 0 33 34" fill="none" xmlns="http://www.w3.org/2000/svg">
<path d="M24.262 10.8239C24.4714 11.0736 24.574 11.3955 24.5472 11.7188L23.6896 22.0638C23.6576 22.3829 23.5016 22.6755 23.2552 22.8786C23.0088 23.0817 22.6917 23.179 22.3723 23.1496C22.0529 23.1202 21.7566 22.9664 21.5474 22.7214C21.3382 22.4763 21.2326 22.1596 21.2536 21.8395L21.8672 14.4376L11.0591 23.5067C10.8117 23.7143 10.4912 23.8142 10.1681 23.7845C9.845 23.7547 9.54579 23.5977 9.33629 23.348C9.12679 23.0984 9.02415 22.7764 9.05095 22.4531C9.07775 22.1298 9.23181 21.8315 9.47922 21.6239L20.2873 12.5548L12.8914 11.8738C12.5725 11.8388 12.2789 11.6799 12.0739 11.4313C11.8689 11.1826 11.7689 10.8642 11.7954 10.5445C11.8219 10.2249 11.9728 9.92953 12.2156 9.72215C12.4584 9.51476 12.7736 9.41193 13.0935 9.43578L23.4302 10.3877C23.7533 10.4174 24.0525 10.5743 24.262 10.8239Z" fill="#484545"/>
</svg>
